#!OML:ASF F:\VICON\USERDATA\INSTALL\SteveWalk\SteveWalk.ASF
:FULLY-SPECIFIED
:DEGREES
212
root 0.465022 15.9872 2.33463 17.8382 5.16819 1.52752
lowerback -15.028 -2.61267 0.189522
upperback -5.03256 -3.5481 1.84085
thorax 3.19127 -1.75096 1.20078
lowerneck -6.13986 -1.55381 -1.11078
upperneck 10.5167 -1.90663 -0.656494
head 4.59082 -1.01882 -0.136696
rclavicle 2.16178e-015 2.38542e-015
rhumerus -96.077 -33.9654 6.69395
rradius 10.5364
rwrist 62.5477
rhand -13.0535 -35.6604
rfingers 7.12502
rthumb 13.0416 -65.2327
lclavicle 2.16178e-015 2.38542e-015
lhumerus -21.1595 -6.05766 83.2129
lradius 57.0801
lwrist 9.92493
lhand -24.6705 -22.687
lfingers 7.12502
lthumb 1.82979 7.28485
rfemur -51.1644 -2.69342 20.8414
rtibia 28.7474
rfoot -4.37066 1.80165
rtoes -23.3377
lfemur -0.80634 -1.79679 -19.4585
ltibia 29.6314
lfoot -11.8003 -10.2406
ltoes -30.2206
213
root 0.466714 15.9913 2.56846 17.9009 5.05763 0.968038
lowerback -15.0545 -2.44431 1.1499
upperback -5.06461 -3.47061 1.98057
thorax 3.12214 -1.71503 0.821334
lowerneck -6.34361 -1.46351 -0.967162
upperneck 10.5166 -1.76665 -0.931481
head 4.62758 -0.958566 -0.249134
rclavicle 5.42558e-014 2.38542e-015
rhumerus -97.3683 -34.4965 9.16548
rradius 10.5094
rwrist 64.9884
rhand -13.2848 -35.9482
rfingers 7.12502
rthumb 12.8186 -65.5346
lclavicle 5.42558e-014 2.38542e-015
lhumerus -21.9521 -5.52325 83.3034
lradius 57.6141
lwrist 10.0761
lhand -24.7655 -22.8336
lfingers 7.12502
lthumb 1.73801 7.13904
rfemur -51.3185 -1.96859 21.0289
rtibia 30.3976
rfoot -4.44587 1.64651
rtoes -23.9635
lfemur -2.12802 -1.93472 -18.94
ltibia 32.7402
lfoot -8.54455 -11.4856
ltoes -25.9113
214
root 0.427059 15.9865 2.80164 17.9411 4.09848 0.926001
lowerback -15.0015 -2.25636 0.850521
upperback -5.0395 -3.18554 2.0914
thorax 3.1403 -1.5728 1.15646
lowerneck -6.61399 -1.35415 -0.88449
upperneck 10.488 -1.59643 -1.18402
head 4.66951 -0.885006 -0.341747
rclavicle 1.57537e-014 -9.54166e-015
rhumerus -98.3476 -35.1335 11.1529
rradius 10.5224
rwrist 67.1705
rhand -13.5154 -36.0109
rfingers 7.12502
rthumb 12.5963 -65.6112
lclavicle 1.57537e-014 -9.54166e-015
lhumerus -22.8133 -5.03389 83.3989
lradius 58.1124
lwrist 10.2058
lhand -24.8783 -22.9044
lfingers 7.12502
lthumb 1.62915 7.06911
rfemur -51.5322 -0.11062 20.3473
rtibia 32.0994
rfoot -4.76935 0.939417
rtoes -26.1116
lfemur -3.56056 -1.33238 -19.0259
ltibia 35.8997
lfoot -3.29916 -12.7262
ltoes -18.995
215
root 0.443827 16.0043 3.03482 17.6512 4.42738 -0.0114509
lowerback -14.7468 -2.12153 2.47322
upperback -4.93155 -3.24415 2.30163
thorax 3.03946 -1.60637 0.463028
lowerneck -6.72432 -1.28393 -0.901574
upperneck 10.3032 -1.48277 -1.33943
head 4.62359 -0.837109 -0.383932
rclavicle 1.12686e-014 -3.18055e-015
rhumerus -98.0075 -35.9815 10.6466
rradius 10.6534
rwrist 67.2614
rhand -13.3954 -36.1413
rfingers 7.12502
rthumb 12.7121 -65.7344
lclavicle 1.12686e-014 -3.18055e-015
lhumerus -23.8261 -4.62967 83.5926
lradius 58.6247
lwrist 10.4198
lhand -25.293 -23.2534
lfingers 7.12502
lthumb 1.22856 6.72276
rfemur -51.1161 -0.673583 21.8601
rtibia 33.6832
rfoot -5.83061 1.57123
rtoes -26.7473
lfemur -4.70719 -1.33654 -17.9638
ltibia 39.0248
lfoot 1.754 -13.2107
ltoes -14.4015
216
root 0.413952 16.0041 3.27837 17.7179 3.59906 0.289053
lowerback -14.8642 -1.96015 1.98553
upperback -4.89121 -2.96548 2.22973
thorax 3.16833 -1.46607 0.703304
lowerneck -6.81729 -1.27284 -0.805506
upperneck 10.1739 -1.45651 -1.5407
head 4.59309 -0.830351 -0.467471
rclavicle -1.32689e-014 -5.56597e-015
rhumerus -98.1419 -36.7987 10.7782
rradius 10.7112
rwrist 67.6567
rhand -13.5703 -35.8092
rfingers 7.12502
rthumb 12.5434 -65.4127
lclavicle -1.32689e-014 -5.56597e-015
lhumerus -24.8726 -4.47438 83.7345
lradius 59.0159
lwrist 10.7638
lhand -25.7381 -23.7384
lfingers 7.12502
lthumb 0.798652 6.23984
rfemur -51.1509 0.0314022 21.6018
rtibia 35.0949
rfoot -6.34813 1.80752
rtoes -25.6042
lfemur -6.16717 -0.921591 -18.4312
ltibia 42.0771
lfoot 6.06483 -13.0854
ltoes -13.5986
217
root 0.426493 16.025 3.50722 17.5046 3.82904 0.314903
lowerback -14.5218 -1.91678 2.54132
upperback -4.89902 -2.96931 2.1177
thorax 2.94126 -1.47264 0.286352
lowerneck -6.83303 -1.24391 -0.771618
upperneck 10.0422 -1.42356 -1.5328
head 4.54807 -0.811564 -0.467711
rclavicle -2.48481e-014 1.35174e-014
rhumerus -98.1393 -37.5374 10.6269
rradius 10.6925
rwrist 67.6372
rhand -14.1234 -35.7354
rfingers 7.12502
rthumb 12.0102 -65.3708
lclavicle -2.48481e-014 1.35174e-014
lhumerus -25.9183 -4.60287 83.9498
lradius 59.2525
lwrist 11.3345
lhand -26.1924 -23.4391
lfingers 7.12502
lthumb 0.359955 6.54034
rfemur -50.6312 -0.947911 22.1803
rtibia 36.2521
rfoot -6.89454 3.05049
rtoes -20.3821
lfemur -7.36115 -1.3877 -18.4397
ltibia 44.958
lfoot 9.51847 -13.1249
ltoes -12.1831
218
root 0.396432 16.0401 3.73731 17.179 3.66032 -0.184057
lowerback -14.2847 -1.79437 2.87786
upperback -4.79189 -2.85548 2.28544
thorax 2.91926 -1.41626 0.297509
lowerneck -6.56822 -1.21291 -0.916958
upperneck 9.73026 -1.39161 -1.36266
head 4.38316 -0.789936 -0.376981
rclavicle -8.94531e-015 2.38542e-015
rhumerus -97.5465 -38.4778 9.63526
rradius 10.6556
rwrist 67.1
rhand -14.5212 -35.8485
rfingers 7.12502
rthumb 11.6265 -65.5059
lclavicle -8.94531e-015 2.38542e-015
lhumerus -26.8508 -4.71477 84.1869
lradius 59.3478
lwrist 11.8047
lhand -26.6411 -22.2993
lfingers 7.12502
lthumb -0.0734359 7.6804
rfemur -49.8954 -0.543433 22.8527
rtibia 37.1642
rfoot -7.21564 3.35339
rtoes -13.1782
lfemur -8.50286 -1.25441 -17.803
ltibia 47.803
lfoot 12.1653 -13.7637
ltoes -12.9587
219
root 0.382262 16.0773 3.96363 17.1309 3.6959 -0.462758
lowerback -14.2761 -1.7233 3.21355
upperback -4.7351 -2.81236 2.35731
thorax 2.96155 -1.39442 0.190558
lowerneck -6.23804 -1.22733 -0.928693
upperneck 9.33918 -1.42293 -1.32691
head 4.17558 -0.80061 -0.358254
rclavicle 1.72694e-014 1.11319e-014
rhumerus -95.4716 -39.5798 6.32532
rradius 10.6776
rwrist 64.5578
rhand -14.0389 -35.6471
rfingers 7.12502
rthumb 12.0916 -65.2778
lclavicle 1.72694e-014 1.11319e-014
lhumerus -27.5101 -4.75432 84.4406
lradius 59.0534
lwrist 12.0992
lhand -26.7965 -21.4994
lfingers 7.12502
lthumb -0.223542 8.48023
rfemur -49.3941 -0.733563 23.4394
rtibia 37.848
rfoot -7.75468 4.0864
rtoes -7.47536
lfemur -10.0183 -1.32195 -17.4462
ltibia 50.6113
lfoot 16.6491 -13.921
ltoes -15.1978
220
root 0.374015 16.1142 4.18577 17.2234 3.77853 -0.338259
lowerback -14.1452 -1.71853 3.17414
upperback -4.82203 -2.79 2.33795
thorax 2.80116 -1.38625 0.202365
lowerneck -6.19742 -1.24187 -0.908155
upperneck 9.28004 -1.44728 -1.31256
head 4.14604 -0.810694 -0.357565
rclavicle -5.24295e-015 -1.74931e-014
rhumerus -92.9241 -40.509 2.35102
rradius 10.7805
rwrist 61.6556
rhand -13.6502 -35.3779
rfingers 7.12502
rthumb 12.4664 -64.9861
lclavicle -5.24295e-015 -1.74931e-014
lhumerus -28.127 -4.66186 84.8092
lradius 58.3989
lwrist 12.1329
lhand -26.7201 -21.4013
lfingers 7.12502
lthumb -0.149721 8.57838
rfemur -48.9615 -1.25681 23.7032
rtibia 38.3406
rfoot -8.50295 4.82833
rtoes -6.30591
lfemur -11.8094 -1.47235 -17.5739
ltibia 53.4086
lfoot 19.994 -14.0041
ltoes -18.7758
221
root 0.353189 16.1276 4.40603 17.1372 3.75403 -0.213621
lowerback -13.9871 -1.69879 2.86566
upperback -4.83939 -2.71495 2.35101
thorax 2.71487 -1.34898 0.406352
lowerneck -6.15592 -1.30345 -0.779811
upperneck 9.28675 -1.53647 -1.38429
head 4.13811 -0.853466 -0.408841
rclavicle 3.08862e-014 1.66979e-014
rhumerus -90.9257 -41.3736 -0.768612
rradius 10.9514
rwrist 59.3915
rhand -14.3724 -35.3482
rfingers 7.12502
rthumb 11.77 -64.9975
lclavicle 3.08862e-014 1.66979e-014
lhumerus -28.835 -4.6213 85.251
lradius 57.8156
lwrist 11.8819
lhand -26.8206 -21.3471
lfingers 7.12502
lthumb -0.24685 8.63245
rfemur -48.1306 -1.42216 23.8627
rtibia 38.726
rfoot -9.93658 4.44141
rtoes -11.3369
lfemur -13.3363 -1.47033 -17.6654
ltibia 56.1147
lfoot 22.3366 -13.6883
ltoes -21.0638
222
root 0.333609 16.1387 4.62951 16.9634 3.64268 -0.487526
lowerback -14.0654 -1.53878 2.95447
upperback -4.73456 -2.5255 2.41882
thorax 2.86829 -1.25208 0.452948
lowerneck -5.94432 -1.36901 -0.718735
upperneck 9.15998 -1.63943 -1.33774
head 4.04974 -0.898586 -0.406348
rclavicle 3.0911e-014 3.18055e-015
rhumerus -89.159 -42.3452 -3.4927
rradius 11.1238
rwrist 57.6209
rhand -14.7109 -35.9876
rfingers 7.12502
rthumb 11.4436 -65.6553
lclavicle 3.0911e-014 3.18055e-015
lhumerus -29.3373 -4.82863 85.6953
lradius 56.9078
lwrist 11.789
lhand -26.7915 -21.269
lfingers 7.12502
lthumb -0.218755 8.71065
rfemur -47.1141 -1.29409 24.3414
rtibia 39.004
rfoot -11.1769 3.53802
rtoes -16.62
lfemur -14.6319 -1.22502 -17.3451
ltibia 58.6826
lfoot 23.6467 -12.746
ltoes -22.7005
223
root 0.319284 16.1668 4.85982 16.7862 3.45118 -0.877029
lowerback -14.1173 -1.29706 3.24558
upperback -4.67526 -2.253 2.4852
thorax 2.95231 -1.11562 0.400355
lowerneck -5.86098 -1.42924 -0.695158
upperneck 9.27676 -1.72725 -1.28924
head 4.07465 -0.939208 -0.399243
rclavicle 3.65143e-014 -9.54166e-015
rhumerus -86.158 -43.1303 -7.86681
rradius 11.2876
rwrist 54.7103
rhand -14.677 -36.5417
rfingers 7.12502
rthumb 11.4763 -66.2076
lclavicle 3.65143e-014 -9.54166e-015
lhumerus -29.8615 -5.07286 86.2171
lradius 55.7923
lwrist 11.6626
lhand -26.6759 -21.1706
lfingers 7.12502
lthumb -0.107051 8.8091
rfemur -46.0027 -1.09821 24.892
rtibia 39.1427
rfoot -11.8171 3.09882
rtoes -17.0106
lfemur -15.9632 -0.786684 -16.958
ltibia 61.0847
lfoot 23.5895 -12.2519
ltoes -24.4988
224
root 0.310805 16.2048 5.08001 16.792 3.55974 -1.00118
lowerback -14.1067 -1.15996 3.37422
upperback -4.74661 -2.08651 2.51931
thorax 2.87028 -1.03443 0.392026
lowerneck -5.8429 -1.5144 -0.786043
upperneck 9.48583 -1.83569 -1.24133
head 4.14699 -0.99474 -0.374797
rclavicle 1.73564e-014 -2.14687e-014
rhumerus -82.9534 -43.727 -12.2295
rradius 11.3844
rwrist 51.9927
rhand -14.7058 -36.1277
rfingers 7.12502
rthumb 11.4485 -65.7951
lclavicle 1.73564e-014 -2.14687e-014
lhumerus -30.3975 -5.28431 86.8656
lradius 54.5067
lwrist 11.3533
lhand -26.6086 -20.8451
lfingers 7.12502
lthumb -0.0420784 9.13461
rfemur -45.0383 -1.35946 25.226
rtibia 39.1594
rfoot -12.5118 2.97097
rtoes -16.0372
lfemur -17.7141 -0.582051 -16.7907
ltibia 63.3277
lfoot 22.9443 -11.5197
ltoes -20.4943
